<svg id="visual" viewBox="0 0 900 600" width="900" height="600" xmlns="http://www.w3.org/2000/svg" xmlns:xlink="http://www.w3.org/1999/xlink" version="1.1"><rect x="0" y="0" width="900" height="600" fill="#ffffff"></rect><g transform="translate(834.6965615783259 575.1404159970531)"><path d="M362.4 -422.2C469.4 -342.1 555.8 -227.7 589.3 -95.3C622.9 37 603.7 187.3 531.3 301C458.8 414.8 333 492.1 197.4 540.8C61.8 589.5 -83.7 609.5 -195.2 559.1C-306.6 508.6 -384.1 387.5 -429 267.9C-473.9 148.4 -486.2 30.2 -463.8 -79.2C-441.4 -188.6 -384.3 -289.2 -301.2 -373.6C-218.1 -457.9 -109.1 -526 9.3 -537.1C127.7 -548.2 255.4 -502.4 362.4 -422.2" fill="#a47d41"></path></g></svg>