<svg id="visual" viewBox="0 0 900 600" width="900" height="600" xmlns="http://www.w3.org/2000/svg" xmlns:xlink="http://www.w3.org/1999/xlink" version="1.1"><rect x="0" y="0" width="900" height="600" fill="#FFFFFF"></rect><defs><linearGradient id="grad1_0" x1="33.3%" y1="0%" x2="100%" y2="100%"><stop offset="20%" stop-color="#ffffff" stop-opacity="1"></stop><stop offset="80%" stop-color="#ffffff" stop-opacity="1"></stop></linearGradient></defs><defs><linearGradient id="grad2_0" x1="0%" y1="0%" x2="66.7%" y2="100%"><stop offset="20%" stop-color="#ffffff" stop-opacity="1"></stop><stop offset="80%" stop-color="#ffffff" stop-opacity="1"></stop></linearGradient></defs><g transform="translate(900, 0)"><path d="M0 486.7C-57.9 465.6 -115.9 444.5 -175.7 424.1C-235.4 403.6 -297.1 383.8 -344.2 344.2C-391.3 304.6 -424 245.1 -445.3 184.5C-466.7 123.8 -476.7 61.9 -486.7 0L0 0Z" fill="#a47d41"></path></g><g transform="translate(0, 600)"><path d="M0 -486.7C65 -482.5 130 -478.2 186.3 -449.7C242.5 -421.2 290 -368.5 314 -314C337.9 -259.4 338.2 -203 363.1 -150.4C388 -97.8 437.4 -48.9 486.7 0L0 0Z" fill="#a47d41"></path></g></svg>