<svg id="visual" viewBox="0 0 900 600" width="900" height="600" xmlns="http://www.w3.org/2000/svg" xmlns:xlink="http://www.w3.org/1999/xlink" version="1.1"><rect x="0" y="0" width="900" height="600" fill="#ffffff"></rect><g transform="translate(839.6392681037187 603.2843481195771)"><path d="M425.2 -484.4C548.3 -403.5 643.5 -266.8 676 -114.4C708.6 38 678.6 206.3 587.6 316.1C496.6 425.9 344.5 477.2 197.5 521.5C50.6 565.7 -91.1 602.8 -205.8 562.4C-320.4 522 -407.9 404 -472.1 279.1C-536.4 154.3 -577.4 22.6 -566.2 -110.1C-555 -242.8 -491.6 -376.5 -388.5 -461C-285.4 -545.5 -142.7 -580.7 4.2 -585.7C151.1 -590.7 302.1 -565.4 425.2 -484.4" fill="#a47d41"></path></g></svg>