<svg id="visual" viewBox="0 0 900 600" width="900" height="600" xmlns="http://www.w3.org/2000/svg" xmlns:xlink="http://www.w3.org/1999/xlink" version="1.1"><rect x="0" y="0" width="900" height="600" fill="#ffffff"></rect><g transform="translate(868.0224715571509 632.1404826255718)"><path d="M305.1 -498.8C373.8 -430.6 392.9 -309.4 437.4 -202.5C481.9 -95.7 551.8 -3.1 556 91.4C560.3 186 498.9 282.6 411.8 324C324.8 365.4 212 351.5 112.5 378.7C13.1 405.9 -73.1 474 -174.6 491.4C-276.2 508.8 -393.1 475.4 -447.9 396.7C-502.7 318.1 -495.4 194.1 -484.9 86.4C-474.5 -21.4 -461 -112.9 -402.5 -160.1C-344 -207.2 -240.4 -210.1 -165.8 -275.5C-91.2 -341 -45.6 -469 36.3 -525.5C118.2 -582 236.4 -566.9 305.1 -498.8" fill="#9b752f"></path></g></svg>